# xmcd
#
# Track frame offsets: 
#        150
#        12719
#        28933
#        41337
#        60160
#        75037
#        97967
#        113434
#        131098
#        139510
#        158559
#        198219
#
# Disc length: 3133 seconds
#
# Revision: 1
# Processed by: cddbd v1.5.2PL0 Copyright (c) Steve Scherf et al.
# Submitted via: ExactAudioCopyFreeDBPlugin 1.0
#
DISCID=830c3b0c
DTITLE=The Whiskey Foundation - Take The Walk
DYEAR=2013
DGENRE=Blues
TTITLE0=Drunken Monkeys
TTITLE1=Buried My Body
TTITLE2=Whole Lotta Lovin'
TTITLE3=Better Days
TTITLE4=Secrets (I Killed A Man)
TTITLE5=Do You Like Huggin
TTITLE6=Rolling Stone
TTITLE7=Save My Rock'n'Roll
TTITLE8=Intro
TTITLE9=Do You Need My Love
TTITLE10=Trip
TTITLE11=Take The Walk
EXTD=
EXTT0=
EXTT1=
EXTT2=
EXTT3=
EXTT4=
EXTT5=
EXTT6=
EXTT7=
EXTT8=
EXTT9=
EXTT10=
EXTT11=
PLAYORDER=
